<?xml version="1.0" encoding="UTF-8" standalone="no"?> <!-- Created with Vectornator for iOS (http://vectornator.io/) --><!DOCTYPE svg PUBLIC "-//W3C//DTD SVG 1.1//EN" "http://www.w3.org/Graphics/SVG/1.1/DTD/svg11.dtd">
<svg style="fill-rule:evenodd;clip-rule:evenodd;stroke-linecap:round;stroke-linejoin:round;" xmlns:vectornator="http://vectornator.io" xmlns:xlink="http://www.w3.org/1999/xlink" xmlns="http://www.w3.org/2000/svg" xml:space="preserve" version="1.1" viewBox="0 0 1000 500">
<metadata>
<vectornator:setting key="RulersVisible" value="1"/>
<vectornator:setting key="SnapToEdges" value="1"/>
<vectornator:setting key="Units" value="Points"/>
<vectornator:setting key="DynamicGuides" value="1"/>
<vectornator:setting key="SnapToPoints" value="1"/>
<vectornator:setting key="GuidesVisible" value="1"/>
<vectornator:setting key="CMYKEnabledKey" value="0"/>
<vectornator:setting key="SnapToGuides" value="0"/>
<vectornator:setting key="GridSpacing" value="36"/>
</metadata>
<defs/>
<g id="Katman 1" vectornator:layerName="Katman 1">
<path d="M215.031+30.3974L0+101.272L106.844+425.366L139.188+434.991L133+416.741L328.094+352.46L317.688+320.866L343.875+312.21L326.969+307.085L311.656+302.585L142.5+358.335L113.438+270.179L258.562+222.366L242.125+172.491L97+220.335L68.5312+133.96L231.469+80.2411L221.094+48.6786L247.25+40.0224L215.031+30.3974Z" opacity="1" fill="#e39007"/>
<path d="M32.2392+110.892L247.274+40.0227L263.707+89.8859L100.762+143.588L129.227+229.958L274.364+182.125L290.798+231.988L145.66+279.821L174.712+367.972L343.891+312.216L360.324+362.079L139.056+435.002L32.2392+110.892Z" opacity="1" fill="#fca311"/>
</g>
<g id="Katman 3" vectornator:layerName="Katman 3">
<path d="M648.556+64.6272C640.99+64.7717+634.042+67.5818+627.681+73.0647C621.321+78.5476+618.212+85.3678+618.369+93.5647C618.519+101.446+621.897+108.016+628.462+113.252L655.4+132.346L658.181+119.377C662.357+118.054+666.275+115.905+669.837+112.69C675.728+107.373+678.588+100.637+678.431+92.4397C678.43+92.3739+678.402+92.3178+678.4+92.2522L690.494+87.1584L665.431+69.5334L665.431+69.6272C660.281+66.2275+654.668+64.5105+648.556+64.6272ZM675.087+164.408L622.119+165.408L625.931+365.44L649.775+382.283L649.494+365.002L678.9+364.44L675.431+181.69L698.931+181.221L675.119+164.502L675.087+165.127L675.087+164.408Z" opacity="1" fill="#e39007"/>
<path d="M645.966+182.241L698.93+181.23L702.751+381.265L649.786+382.276L645.966+182.241ZM642.228+110.406C642.072+102.209+645.174+95.3693+651.534+89.8863C657.895+84.4034+664.858+81.5897+672.425+81.4452C679.991+81.3006+686.82+83.8509+692.913+89.096C699.005+94.3411+702.13+101.062+702.286+109.259C702.443+117.456+699.576+124.212+693.685+129.529C687.794+134.845+681.066+137.575+673.5+137.72C665.933+137.864+658.867+135.319+652.302+130.083C645.737+124.846+642.379+118.288+642.228+110.406Z" opacity="1" fill="#fca311"/>
</g>
<g id="Katman 4" vectornator:layerName="Katman 4">
<path d="M790.436+104.862L748.592+373.237L765.123+393.018L766.936+381.518L769.373+381.893C768.836+380.972+768.015+379.744+767.404+378.706L767.779+376.237L795.592+380.549L812.561+271.643C812.958+272.305+813.36+272.964+813.779+273.612C813.385+272.785+813.006+271.954+812.654+271.112L815.186+254.831L811.279+267.487C809.935+263.489+809.022+259.348+808.592+255.018L814.186+219.018C818.24+211.557+823.267+205.324+829.248+200.331C833.034+197.171+837.231+194.707+841.748+192.768C843.602+172.873+859.511+156.653+880.092+155.237C880.675+155.197+880.482+155.194+882.748+155.018C887.05+154.685+889.748+154.544+893.123+154.518C898.807+154.474+904.195+154.908+909.748+156.081C917.692+157.758+925.245+160.847+932.154+165.799C941.529+172.519+948.425+181.02+953.217+190.924C955.94+196.552+957.358+200.99+959.342+208.237C954.581+208.375+950.673+208.379+946.654+208.143C948.03+215.086+948.194+222.46+946.967+230.331C945.295+241.054+941.108+250.31+934.404+258.081C927.701+265.852+919.541+271.42+909.904+274.831C900.267+278.242+890.22+279.146+879.779+277.518C871.314+276.198+863.673+273.345+856.842+268.956C850.011+264.566+844.662+258.958+840.811+252.143C836.96+245.328+834.629+237.977+833.842+230.049L838.154+202.424C834.924+202.49+831.996+202.539+829.967+202.581C829.521+206.699+829.221+211.182+829.123+216.487C829.037+221.171+829.063+225.154+829.186+234.018C829.273+240.359+829.311+243.077+829.311+246.612C829.311+257.067+825.316+266.502+818.936+273.799C819.879+277.86+820.614+281.024+821.061+282.924C818.384+279.977+815.91+276.904+813.779+273.612C814.34+274.787+814.883+275.968+815.529+277.112C817.26+280.175+819.352+282.944+821.686+285.518C821.963+286.88+821.973+286.633+822.217+287.799C822.826+288.612+823.396+289.48+823.998+290.299L824.342+288.174C826.551+290.251+828.902+292.216+831.561+293.924C834.757+295.978+838.163+297.668+841.717+299.049C839.572+297.857+837.424+296.658+835.342+295.268C831.374+292.619+827.835+289.69+824.592+286.581L825.717+279.362C830.416+287.19+836.659+294.025+844.404+299.924C843.513+299.624+842.59+299.389+841.717+299.049C843.227+299.89+844.771+300.615+846.311+301.362C847.054+301.894+847.727+302.472+848.498+302.987C859.232+310.153+870.8+314.707+883.217+316.643C898.934+319.094+913.619+318.429+927.373+315.018C928.547+313.545+929.751+312.181+931.029+310.893C933.374+308.532+935.659+306.613+938.342+304.581C938.94+304.128+939.545+303.673+940.186+303.206C940.646+302.871+941.257+302.417+942.029+301.862C943.509+300.328+945.083+298.713+945.717+298.049C952.208+291.263+955.376+287.247+957.092+284.143C957.172+283.649+957.244+283.149+957.342+282.331C958.683+280.9+960.11+279.587+961.373+278.049C971.898+265.238+978.699+248.959+981.779+229.206C984.86+209.452+983.727+191.708+978.373+175.987C973.02+160.266+964.342+147.425+952.311+137.456C940.28+127.486+925.774+121.19+908.842+118.549C893.039+116.085+878.39+117.033+864.842+121.424C858.319+123.539+852.193+126.139+846.436+129.143L831.498+111.268L790.436+104.862ZM831.467+128.518L844.061+130.456C839.617+132.917+835.405+135.663+831.436+138.674L831.467+128.518ZM963.529+226.268C963.604+226.742+963.71+227.223+963.779+227.706C965.126+237.083+964.934+245.954+962.186+255.174C961.691+256.835+960.979+258.373+960.342+259.956C961.818+249.155+962.903+237.905+963.529+226.268Z" opacity="1" fill="#e39007"/>
<path d="M886.594+328.709C874.177+326.773+862.602+322.222+851.868+315.056C841.134+307.89+832.966+299.101+827.363+288.689L831.723+274.627L812.121+400.345L765.135+393.019L806.981+124.651L848.04+131.053L847.921+173.526L845.668+160.167C855.913+151.936+867.808+145.625+881.356+141.234C894.904+136.843+909.579+135.879+925.382+138.343C942.314+140.983+956.795+147.288+968.827+157.258C980.858+167.227+989.55+180.073+994.903+195.794C1000.26+211.515+1001.39+229.252+998.313+249.006C995.232+268.76+988.43+285.042+977.905+297.854C967.38+310.666+954.187+319.737+938.324+325.068C922.462+330.4+905.219+331.613+886.594+328.709ZM883.156+289.584C893.597+291.212+903.636+290.32+913.273+286.909C922.91+283.498+931.081+277.907+937.785+270.136C944.488+262.365+948.676+253.118+950.348+242.394C952.109+231.106+951.19+220.774+947.594+211.397C943.998+202.02+938.422+194.213+930.867+187.977C923.313+181.74+914.456+177.83+904.297+176.246C894.984+174.794+886.417+175.048+878.596+177.008C870.775+178.968+863.874+182.445+857.892+187.438C851.911+192.431+846.893+198.658+842.839+206.119L837.229+242.099C838.016+250.026+840.335+257.398+844.187+264.213C848.038+271.028+853.379+276.63+860.21+281.02C867.041+285.409+874.69+288.264+883.156+289.584Z" opacity="1" fill="#fca311"/>
</g>
<g id="Katman 2" vectornator:layerName="Katman 2">
<path d="M375.7+47.7608L329.012+57.1671L394.481+382.355L427.2+396.417L423.2+376.573L441.168+372.948L428.262+308.886L445.325+288.98L510.793+358.917L543.512+372.98L527.262+355.605L565.418+347.948L472.637+257.042L526.606+193.948L522.887+191.823L525.512+188.792L492.793+174.73L418.606+260.792L379.7+67.6046L408.418+61.8233L375.7+47.7608Z" opacity="1" fill="#e39007"/>
<path d="M427.197+396.41L361.724+71.2308L408.417+61.8297L473.889+387.009L427.197+396.41ZM493.825+259.797L598.124+361.995L543.511+372.991L468.346+292.689L493.825+259.797ZM449.054+336.917L435.487+293.232L525.509+188.782L559.311+208.003L449.054+336.917Z" opacity="1" fill="#fca311"/>
<path d="M447.215+258.253L451.709+276.822L479.5+249.019L509.514+266.226L460.346+323.714L457+344.973L430.165+332.027L417.082+275.448" opacity="1" fill="#fca311"/>
</g>
<g id="freepik--error-404--inject-181" vectornator:layerName="freepik--error-404--inject-181">
<path d="M234.522+332.203C234.582+332.333+226.992+335.873+217.572+340.113C208.152+344.353+200.462+347.673+200.402+347.543C200.342+347.413+207.932+343.873+217.402+339.633C226.872+335.393+234.462+332.073+234.522+332.203Z" opacity="1" fill="#fca311"/>
<path d="M239.502+311.703C239.562+311.833+233.292+314.773+225.502+318.273C217.712+321.773+211.352+324.513+211.292+324.383C211.232+324.253+217.492+321.303+225.292+317.803C233.092+314.303+239.442+311.573+239.502+311.703Z" opacity="1" fill="#fca311"/>
<path d="M241.792+288.673C241.852+288.803+235.582+291.743+227.792+295.243C220.002+298.743+213.642+301.483+213.582+301.353C213.522+301.223+219.782+298.273+227.582+294.773C235.382+291.273+241.732+288.493+241.792+288.673Z" opacity="1" fill="#fca311"/>
<path d="M244.082+265.633C244.142+265.763+237.882+268.713+230.082+272.213C222.282+275.713+215.932+278.443+215.872+278.313C215.812+278.183+222.082+275.243+229.872+271.743C237.662+268.243+244.002+265.493+244.082+265.633Z" opacity="1" fill="#fca311"/>
<path d="M246.382+242.603C246.432+242.733+240.172+245.683+232.382+249.183C224.592+252.683+218.232+255.413+218.172+255.283C218.112+255.153+224.382+252.213+232.172+248.703C239.962+245.193+246.322+242.493+246.382+242.603Z" opacity="1" fill="#fca311"/>
<path d="M241.792+222.093C241.852+222.223+235.582+225.173+227.792+228.673C220.002+232.173+213.642+234.903+213.582+234.773C213.522+234.643+219.782+231.693+227.582+228.193C235.382+224.693+241.732+221.963+241.792+222.093Z" opacity="1" fill="#fca311"/>
<path d="M241.792+200.013C241.852+200.143+235.582+203.093+227.792+206.593C220.002+210.093+213.642+212.823+213.582+212.693C213.522+212.563+219.782+209.613+227.582+206.113C235.382+202.613+241.732+199.883+241.792+200.013Z" opacity="1" fill="#fca311"/>
<path d="M239.502+179.223C239.562+179.353+233.292+182.293+225.502+185.793C217.712+189.293+211.352+192.033+211.292+191.903C211.232+191.773+217.492+188.823+225.292+185.323C233.092+181.823+239.442+179.093+239.502+179.223Z" opacity="1" fill="#fca311"/>
<path d="M285.622+265.793C285.622+265.843+284.912+265.933+283.672+266.343C281.948+266.974+280.322+267.846+278.842+268.933C276.942+270.263+274.842+272.123+272.432+274.043C269.773+276.118+266.892+277.892+263.842+279.333C258.308+281.986+252.309+283.535+246.182+283.893C245.012+283.993+243.942+283.963+243.012+283.983C242.082+284.003+241.282+283.923+240.632+283.873L239.122+283.723C238.948+283.721+238.776+283.69+238.612+283.633C238.785+283.609+238.96+283.609+239.132+283.633L240.642+283.683L243.012+283.683C243.942+283.633+245.012+283.683+246.152+283.523C252.213+283.056+258.136+281.472+263.622+278.853C266.635+277.422+269.491+275.679+272.142+273.653C274.572+271.773+276.682+269.923+278.642+268.653C280.17+267.572+281.857+266.735+283.642+266.173C284.128+266.035+284.622+265.928+285.122+265.853C285.285+265.808+285.453+265.788+285.622+265.793Z" opacity="1" fill="#ffffff"/>
<path d="M279.942+194.183C279.795+194.129+279.654+194.059+279.522+193.973L278.362+193.303C277.76+192.937+277.139+192.603+276.502+192.303C275.68+191.863+274.836+191.465+273.972+191.113L272.472+190.483C271.942+190.273+271.382+190.113+270.802+189.913C269.662+189.493+268.392+189.203+267.062+188.853C261.248+187.531+255.217+187.479+249.382+188.703C248.112+188.972+246.857+189.306+245.622+189.703C245.042+189.893+244.472+190.043+243.942+190.243L242.432+190.843C241.563+191.183+240.712+191.567+239.882+191.993C239.238+192.286+238.613+192.62+238.012+192.993L236.832+193.643C236.562+193.783+236.412+193.853+236.402+193.833C236.516+193.724+236.644+193.63+236.782+193.553L237.902+192.813C238.494+192.419+239.112+192.065+239.752+191.753C240.573+191.292+241.421+190.882+242.292+190.523L243.802+189.883C244.332+189.673+244.912+189.513+245.492+189.313C246.735+188.894+248+188.543+249.282+188.263C255.181+186.969+261.297+187.024+267.172+188.423C268.512+188.783+269.792+189.093+270.942+189.533C271.522+189.743+272.092+189.913+272.612+190.143L274.122+190.803C274.983+191.184+275.824+191.608+276.642+192.073C277.272+192.4+277.88+192.768+278.462+193.173L279.582+193.933C279.832+194.063+280.002+194.163+279.942+194.183Z" opacity="1" fill="#ffffff"/>
<path d="M367.822+235.733C367.37+236.106+366.889+236.44+366.382+236.733C365.382+237.353+364.032+238.233+362.302+239.303C358.852+241.433+354.032+244.303+348.672+247.423C343.312+250.543+338.422+253.293+334.852+255.233C333.072+256.233+331.612+256.983+330.602+257.503C330.09+257.79+329.559+258.04+329.012+258.253C329.486+257.903+329.988+257.592+330.512+257.323L334.672+254.913L348.412+246.973L362.112+238.973L366.272+236.553C366.768+236.243+367.286+235.969+367.822+235.733Z" opacity="1" fill="#fca311"/>
<path d="M383.572+205.493C383.115+205.864+382.63+206.198+382.122+206.493C381.122+207.113+379.782+207.993+378.052+209.063C374.592+211.193+369.772+214.063+364.422+217.183C359.072+220.303+354.162+223.053+350.592+224.993C348.812+225.993+347.362+226.743+346.352+227.263C345.838+227.553+345.304+227.804+344.752+228.013C345.228+227.666+345.729+227.355+346.252+227.083L350.412+224.673L364.152+216.733L377.862+208.733L382.022+206.313C382.517+206.001+383.035+205.726+383.572+205.493Z" opacity="1" fill="#fca311"/>
<path d="M393.402+252.603C393.043+252.34+392.709+252.046+392.402+251.723L389.662+249.273C386.626+246.607+383.448+244.107+380.142+241.783C378.343+240.491+376.408+239.397+374.372+238.523C372.713+237.827+370.948+237.418+369.152+237.313C367.489+237.244+365.827+237.467+364.242+237.973C364.242+237.973+364.342+237.893+364.552+237.793C364.856+237.649+365.17+237.529+365.492+237.433C366.683+237.066+367.927+236.9+369.172+236.943C371.019+237.001+372.841+237.387+374.552+238.083C376.632+238.942+378.605+240.04+380.432+241.353C383.765+243.681+386.933+246.237+389.912+249.003C391.052+250.063+391.912+251.003+392.542+251.583C392.866+251.89+393.155+252.232+393.402+252.603Z" opacity="1" fill="#ffffff"/>
<path d="M282.082+229.033L275.082+227.933L231.712+213.933L206.352+206.603C199.148+204.005+191.185+204.549+184.402+208.103C172.402+214.203+139.342+244.983+139.342+244.983L163.152+269.533L154.777+317.828C157.867+327.068+163.452+336.609+166.271+343.094C167.881+346.795+168.588+349.57+168.684+349.793C168.779+350.015+176.5+347.32+176.5+347.32C177.771+348.915+195.575+342.098+213.75+335.866C240.658+324.725+266.682+323.002+269.682+314.232C271.482+308.972+277.292+298.993+278.472+286.503L314.592+271.783L324.382+221.783L282.082+229.033Z" opacity="1" fill="#455a64"/>
<path d="M229.322+317.493C229.322+317.493+229.212+317.613+228.972+317.803C228.732+317.993+228.382+318.283+227.892+318.603C226.527+319.523+225.073+320.303+223.552+320.933C213.179+325.353+201.145+322.729+193.552+314.393C192.424+313.183+191.419+311.863+190.552+310.453C190.242+309.963+190.052+309.553+189.902+309.283C189.823+309.151+189.76+309.01+189.712+308.863C190.075+309.336+190.409+309.83+190.712+310.343C191.626+311.694+192.657+312.962+193.792+314.133C201.368+322.173+213.102+324.739+223.342+320.593C224.859+319.999+226.321+319.273+227.712+318.423C228.772+317.793+229.292+317.433+229.322+317.493Z" opacity="1" fill="#263238"/>
<path d="M215.602+216.003C215.642+216.078+215.669+216.159+215.682+216.243C215.732+216.433+215.792+216.663+215.862+216.953C216.012+217.573+216.222+218.503+216.472+219.693C217.212+223.061+217.69+226.482+217.902+229.923C218.03+232.311+217.892+234.706+217.492+237.063C217.008+239.782+216.043+242.393+214.642+244.773C213.019+247.346+211.02+249.662+208.712+251.643C206.362+253.743+203.762+255.643+201.112+257.703C195.472+261.933+189.992+265.763+185.112+269.243C180.232+272.723+175.882+275.833+172.422+278.453L172.312+278.543L172.202+278.453C169.761+276.517+167.443+274.429+165.262+272.203C164.672+271.604+164.127+270.963+163.632+270.283C163.462+270.053+163.362+269.863+163.282+269.743C163.241+269.679+163.204+269.612+163.172+269.543C163.172+269.543+163.362+269.783+163.712+270.223C164.238+270.87+164.799+271.488+165.392+272.073C167.616+274.232+169.953+276.271+172.392+278.183L172.172+278.183C175.612+275.523+179.912+272.353+184.812+268.863C189.712+265.373+195.172+261.523+200.812+257.293C203.452+255.293+206.052+253.343+208.382+251.293C210.658+249.349+212.633+247.078+214.242+244.553C215.629+242.233+216.587+239.683+217.072+237.023C217.487+234.694+217.644+232.327+217.542+229.963C217.363+226.538+216.942+223.129+216.282+219.763C216.062+218.593+215.892+217.673+215.762+217.003C215.709+216.717+215.669+216.477+215.642+216.283C215.612+216.193+215.598+216.098+215.602+216.003Z" opacity="1" fill="#263238"/>
<path d="M403.932+238.493C414.082+229.783+417.522+214.113+411.932+201.963L397.632+200.493C404.998+196.435+409.116+188.27+408.002+179.933C399.891+188.327+387.341+190.638+376.772+185.683C370.092+182.383+364.672+176.233+357.332+174.943C350.672+173.773+344.122+176.943+337.742+179.163C331.362+181.383+323.642+182.673+318.362+178.443C314.182+175.093+312.882+169.223+313.152+163.863C313.422+158.503+314.972+153.283+315.302+147.933C315.786+137.278+311.545+126.953+303.712+119.713C301.085+111.067+294.372+104.267+285.76+101.528C277.149+98.7894+267.741+100.463+260.602+106.003C257.472+108.423+254.832+111.553+251.282+113.303C247.282+115.303+242.612+115.303+238.282+116.303C233.952+117.303+229.382+120.243+228.922+124.693L227.172+133.803C226.882+134.453+226.572+135.093+226.172+135.723C222.492+142.183+214.952+146.433+213.302+153.723C212.382+157.793+213.522+162.203+212.152+166.143C210.342+171.333+204.742+174.253+202.152+179.083C198.572+185.723+201.002+197.353+206.732+202.253C212.462+207.153+224.272+212.353+231.652+213.923C233.652+206.253+235.422+198.053+237.132+189.663C240.132+192.553+243.302+195.303+246.442+198.033C254.652+205.173+263.042+212.423+268.742+221.693C279.572+239.323+279.742+262.693+293.392+278.233C296.062+281.283+299.312+283.993+303.192+285.173C307.072+286.353+311.672+285.723+314.542+282.863C317.932+279.483+318.372+273.783+322.122+270.813C327.122+266.863+334.382+270.013+339.732+273.443C343.612+275.923+347.492+278.543+351.882+279.903C356.272+281.263+361.392+281.173+365.132+278.493C368.872+275.813+370.512+270.093+367.812+266.363C366.732+264.873+365.122+263.833+364.052+262.363C362.982+260.893+362.672+258.493+364.142+257.363C365.612+256.233+368.022+257.363+369.772+258.363C378.466+263.473+388.999+264.398+398.451+260.882C407.903+257.367+415.271+249.783+418.512+240.233C413.584+240.971+408.548+240.37+403.932+238.493Z" opacity="1" fill="#263238"/>
<path d="M395.002+160.043C395.46+160.376+395.891+160.744+396.292+161.143C397.499+162.266+398.513+163.581+399.292+165.033C399.834+166.092+400.205+167.229+400.392+168.403C400.862+171.51+399.469+174.605+396.832+176.313C396.073+176.805+395.211+177.117+394.312+177.223C393.36+177.324+392.398+177.187+391.512+176.823C387.802+175.303+385.932+171.013+381.922+169.103C378.012+167.033+373.012+166.893+368.212+167.993C363.412+169.093+358.722+171.703+353.992+174.363C349.262+177.023+344.232+179.873+338.442+180.863C335.6+181.414+332.676+181.393+329.842+180.803C328.45+180.486+327.105+179.989+325.842+179.323C324.616+178.652+323.485+177.817+322.482+176.843C320.576+174.905+319.109+172.579+318.182+170.023C317.274+167.598+316.676+165.068+316.402+162.493C315.872+157.493+316.292+152.693+316.342+148.263C316.542+144.153+316.134+140.035+315.132+136.043C314.655+134.32+314.016+132.646+313.222+131.043C312.527+129.602+311.715+128.221+310.792+126.913C309.33+124.811+307.613+122.896+305.682+121.213C304.452+120.157+303.145+119.195+301.772+118.333L300.682+117.683L300.322+117.453C300.458+117.504+300.589+117.567+300.712+117.643L301.832+118.243C305.468+120.395+308.604+123.296+311.032+126.753C313.033+129.542+314.538+132.654+315.482+135.953C316.525+139.973+316.96+144.125+316.772+148.273C316.772+152.733+316.342+157.493+316.882+162.443C317.154+164.973+317.742+167.459+318.632+169.843C319.541+172.329+320.973+174.59+322.832+176.473C323.797+177.418+324.887+178.226+326.072+178.873C327.291+179.507+328.585+179.988+329.922+180.303C332.692+180.87+335.546+180.887+338.322+180.353C344.002+179.353+348.982+176.563+353.712+173.913C358.442+171.263+363.112+168.653+368.072+167.523C370.472+166.958+372.942+166.749+375.402+166.903C376.58+166.986+377.749+167.177+378.892+167.473C380.001+167.773+381.074+168.192+382.092+168.723C386.242+170.723+388.092+175.063+391.622+176.473C393.258+177.17+395.133+177.005+396.622+176.033C397.966+175.186+399.014+173.942+399.622+172.473C400.149+171.21+400.321+169.827+400.122+168.473C399.968+167.324+399.631+166.206+399.122+165.163C398.383+163.721+397.425+162.402+396.282+161.253C395.892+160.853+395.582+160.563+395.372+160.373C395.162+160.183+395.002+160.043+395.002+160.043Z" opacity="1" fill="#263238"/>
<path d="M231.552+217.763C231.552+217.763+231.552+217.613+231.472+217.313C231.42+216.87+231.329+216.432+231.202+216.003C230.742+214.347+229.903+212.82+228.752+211.543C226.895+209.553+224.635+207.981+222.122+206.933C219.222+205.603+215.622+204.933+211.682+204.213C207.742+203.493+203.272+202.633+199.252+199.953C194.734+196.901+191.797+192.007+191.229+186.584C190.662+181.161+192.523+175.764+196.312+171.843C200.452+167.593+206.312+165.483+211.092+161.753C212.264+160.813+213.318+159.736+214.232+158.543C215.092+157.327+215.741+155.975+216.152+154.543C216.952+151.703+216.882+148.733+217.152+145.843C217.261+144.395+217.529+142.963+217.952+141.573C218.396+140.197+219.114+138.925+220.062+137.833C222.028+135.862+224.504+134.477+227.212+133.833C229.782+133.083+232.342+132.613+234.752+131.953C237.109+131.352+239.34+130.336+241.342+128.953C243.189+127.646+244.848+126.092+246.272+124.333C247.607+122.758+248.852+121.109+250.002+119.393C252.212+116.053+254.102+112.923+256.112+110.393C257.776+108.21+259.738+106.271+261.942+104.633C263.343+103.606+264.899+102.809+266.552+102.273C267.121+102.074+267.707+101.926+268.302+101.833C268.302+101.833+267.692+101.973+266.582+102.373C264.959+102.944+263.434+103.764+262.062+104.803C259.895+106.45+257.97+108.393+256.342+110.573C254.342+113.073+252.502+116.193+250.342+119.573C249.205+121.35+247.963+123.056+246.622+124.683C245.177+126.477+243.495+128.064+241.622+129.403C239.582+130.789+237.314+131.805+234.922+132.403C232.482+133.083+229.922+133.553+227.392+134.303C224.772+134.917+222.375+136.25+220.472+138.153C219.573+139.194+218.893+140.404+218.472+141.713C218.062+143.067+217.804+144.462+217.702+145.873C217.432+148.733+217.512+151.723+216.702+154.673C216.274+156.15+215.597+157.543+214.702+158.793C213.76+160.021+212.672+161.129+211.462+162.093C209.013+163.897+206.444+165.531+203.772+166.983C201.225+168.39+198.872+170.121+196.772+172.133C193.079+175.952+191.262+181.206+191.805+186.49C192.349+191.773+195.199+196.547+199.592+199.533C203.492+202.163+207.932+203.003+211.842+203.793C215.752+204.583+219.402+205.233+222.322+206.603C224.861+207.684+227.137+209.301+228.992+211.343C230.143+212.655+230.966+214.221+231.392+215.913C231.507+216.349+231.581+216.794+231.612+217.243C231.552+217.613+231.552+217.763+231.552+217.763Z" opacity="1" fill="#263238"/>
<path d="M311.392+127.993C311.13+127.967+310.873+127.9+310.632+127.793C309.949+127.57+309.281+127.303+308.632+126.993C304.302+124.954+300.608+121.778+297.942+117.803C297.542+117.206+297.178+116.585+296.852+115.943C296.709+115.719+296.605+115.472+296.542+115.213C296.612+115.213+297.182+116.133+298.242+117.583C301.018+121.377+304.627+124.483+308.792+126.663C310.382+127.493+311.432+127.913+311.392+127.993Z" opacity="1" fill="#455a64"/>
<path d="M344.642+196.203C344.642+196.203+344.012+196.043+342.882+195.803C341.282+195.465+339.656+195.264+338.022+195.203C335.6+195.137+333.176+195.208+330.762+195.413C328.022+195.603+325.002+195.883+321.812+195.813C318.791+195.814+315.797+195.251+312.982+194.153C310.696+193.199+308.668+191.719+307.062+189.833C305.984+188.56+305.208+187.059+304.792+185.443C304.683+185.007+304.612+184.562+304.582+184.113C304.56+183.958+304.56+183.799+304.582+183.643C304.642+183.643+304.672+184.283+304.992+185.393C305.479+186.944+306.287+188.375+307.362+189.593C308.957+191.398+310.949+192.809+313.182+193.713C315.947+194.757+318.877+195.292+321.832+195.293C324.982+195.363+327.992+195.103+330.742+194.933C333.174+194.744+335.616+194.711+338.052+194.833C339.703+194.93+341.341+195.188+342.942+195.603C343.375+195.718+343.803+195.855+344.222+196.013C344.371+196.054+344.513+196.118+344.642+196.203Z" opacity="1" fill="#455a64"/>
<path d="M403.572+241.673C403.572+241.673+403.482+241.673+403.282+241.803C402.997+241.933+402.699+242.03+402.392+242.093C401.205+242.347+399.972+242.292+398.812+241.933C396.988+241.347+395.338+240.316+394.012+238.933C392.328+237.04+391.019+234.844+390.152+232.463C389.062+229.903+388.152+226.963+386.362+224.243C385.459+222.835+384.395+221.536+383.192+220.373C381.895+219.158+380.474+218.082+378.952+217.163C372.672+213.373+364.422+211.823+355.952+212.323C347.482+212.823+339.512+214.423+332.142+214.933C325.607+215.633+318.997+214.952+312.742+212.933C308.51+211.558+304.685+209.152+301.612+205.933C301.136+205.432+300.692+204.901+300.282+204.343C299.962+203.95+299.675+203.532+299.422+203.093C299.222+202.763+299.062+202.493+298.932+202.293C298.87+202.207+298.82+202.113+298.782+202.013C298.782+202.013+298.862+202.093+298.982+202.263L299.502+203.033C299.776+203.455+300.077+203.859+300.402+204.243C300.821+204.789+301.276+205.307+301.762+205.793C304.856+208.912+308.662+211.232+312.852+212.553C319.07+214.502+325.624+215.142+332.102+214.433C339.432+213.893+347.392+212.213+355.922+211.773C364.452+211.333+372.772+212.843+379.152+216.723C380.7+217.666+382.145+218.768+383.462+220.013C384.687+221.217+385.767+222.56+386.682+224.013C388.492+226.803+389.382+229.773+390.452+232.323C391.275+234.676+392.538+236.851+394.172+238.733C395.452+240.1+397.049+241.131+398.822+241.733C399.949+242.113+401.153+242.199+402.322+241.983C403.172+241.843+403.562+241.633+403.572+241.673Z" opacity="1" fill="#455a64"/>
<path d="M246.292+127.983C242.411+127.887+239.102+130.775+238.672+134.633L238.672+134.633L230.582+218.843C229.182+230.683+244.672+256.073+257.362+257.473L257.362+257.473C270.172+258.883+271.432+252.673+273.092+241.473C275.872+222.733+276.802+215.673+276.792+215.783C276.782+215.893+293.292+215.233+299.412+194.603C302.412+184.343+304.192+167.093+305.162+152.933C306.032+140.183+299.702+123.573+286.922+123.243L246.292+127.983Z" opacity="1" fill="#ffbe9d"/>
<path d="M299.582+164.083C299.41+165.568+298.067+166.633+296.582+166.463C295.88+166.428+295.222+166.11+294.758+165.583C294.293+165.056+294.06+164.364+294.112+163.663C294.295+162.183+295.628+161.121+297.112+161.273C297.816+161.309+298.475+161.628+298.94+162.157C299.405+162.686+299.637+163.381+299.582+164.083Z" opacity="1" fill="#263238"/>
<path d="M300.732+158.633C300.412+159.013+298.252+157.633+295.322+157.843C292.392+158.053+290.322+159.663+290.012+159.333C289.852+159.183+290.142+158.523+291.012+157.773C292.217+156.809+293.691+156.239+295.232+156.143C296.752+156.03+298.269+156.405+299.562+157.213C300.532+157.843+300.882+158.493+300.732+158.633Z" opacity="1" fill="#263238"/>
<path d="M273.852+165.603C273.502+165.953+271.482+164.363+268.552+164.293C265.622+164.223+263.432+165.623+263.122+165.293C262.972+165.123+263.332+164.493+264.292+163.843C265.584+162.995+267.108+162.572+268.652+162.633C270.175+162.672+271.646+163.194+272.852+164.123C273.732+164.803+274.002+165.493+273.852+165.603Z" opacity="1" fill="#263238"/>
<path d="M279.312+181.093C279.312+180.923+281.172+180.853+284.152+180.863C284.902+180.863+285.622+180.863+285.822+180.333C285.983+179.576+285.91+178.788+285.612+178.073C285.152+176.18+284.669+174.18+284.162+172.073C282.162+163.623+280.832+156.713+281.162+156.633C281.492+156.553+283.392+163.353+285.382+171.803C285.862+173.883+286.312+175.863+286.742+177.803C287.1+178.771+287.1+179.836+286.742+180.803C286.455+181.303+285.953+181.643+285.382+181.723C284.954+181.778+284.52+181.778+284.092+181.723C281.132+181.493+279.302+181.253+279.312+181.093Z" opacity="1" fill="#263238"/>
<path d="M276.792+215.763C266.846+214.604+257.418+210.702+249.562+204.493C249.562+204.493+254.772+219.913+276.122+220.723L276.792+215.763Z" opacity="1" fill="#eb996e"/>
<path d="M274.262+160.593C273.802+161.303+271.032+160.263+267.592+159.883C264.152+159.503+261.222+159.783+260.942+158.983C260.822+158.603+261.462+157.983+262.732+157.493C264.399+156.892+266.186+156.7+267.942+156.933C269.707+157.127+271.4+157.737+272.882+158.713C274.002+159.493+274.472+160.253+274.262+160.593Z" opacity="1" fill="#263238"/>
<path d="M300.292+154.703C299.812+155.393+297.762+154.813+295.292+154.903C292.822+154.993+290.832+155.573+290.292+154.903C290.072+154.573+290.362+153.903+291.222+153.223C292.385+152.379+293.785+151.925+295.222+151.923C296.64+151.881+298.036+152.275+299.222+153.053C300.192+153.693+300.502+154.373+300.292+154.703Z" opacity="1" fill="#263238"/>
<path d="M272.232+186.403C273.574+185.487+275.22+185.128+276.822+185.403C277.639+185.516+278.392+185.908+278.952+186.513C279.558+187.408+279.824+188.49+279.702+189.563C279.707+190.211+279.609+190.856+279.412+191.473C279.207+192.091+278.769+192.604+278.192+192.903C277.55+193.135+276.854+193.17+276.192+193.003C275.092+192.862+274.037+192.48+273.102+191.883C272.16+191.28+271.531+190.292+271.382+189.183C271.255+188.052+271.885+186.971+272.932+186.523" opacity="1" fill="#eb996e"/>
<path d="M280.122+192.823C279.912+192.903+279.522+192.263+278.822+191.393C277.064+189.085+274.444+187.591+271.562+187.253C270.452+187.093+269.712+187.083+269.662+186.863C269.612+186.643+270.312+186.273+271.582+186.143C273.257+186.012+274.933+186.389+276.392+187.223C277.855+188.049+279.03+189.302+279.762+190.813C280.302+191.963+280.312+192.763+280.122+192.823Z" opacity="1" fill="#263238"/>
<path d="M229.452+213.053C236.402+211.663+241.762+205.693+244.152+199.053C246.542+192.413+246.412+185.103+245.782+178.053C245.818+177.132+245.475+176.235+244.832+175.573C243.782+174.763+242.272+175.423+241.132+176.113C236.75+178.778+232.551+181.731+228.562+184.953C224.842+187.953+221.162+191.403+219.732+195.953C217.542+202.953+222.172+211.303+229.262+213.143" opacity="1" fill="#263238"/>
<path d="M389.202+211.423L356.432+158.743L347.372+140.203C347.372+140.203+344.482+136.373+341.482+133.103C336.562+127.733+331.692+131.903+331.692+131.903C331.133+130.604+329.813+129.801+328.402+129.903C326.609+129.902+324.924+130.761+323.872+132.213C323.872+132.213+322.532+130.723+318.812+130.493C317.967+130.483+317.141+130.75+316.462+131.253C315.242+130.183+313.002+128.643+310.852+129.423C309.172+130.033+298.982+137.783+296.472+141.683C295.232+143.613+297.532+146.113+300.632+144.943C301.907+144.531+303.15+144.027+304.352+143.433C305.293+142.905+306.143+142.23+306.872+141.433C306.872+141.433+304.302+145.933+306.872+146.723C308.576+147.065+310.343+146.637+311.702+145.553C312.702+144.733+313.802+143.663+314.872+142.613L314.752+142.793C313.332+144.893+317.032+148.003+318.822+146.743C319.654+146.156+320.452+145.522+321.212+144.843C325.372+147.843+319.602+151.733+317.162+151.533C313.407+151.249+309.637+151.249+305.882+151.533C303.762+151.703+301.882+152.213+300.722+153.383C299.342+154.803+300.792+157.783+302.722+158.083C306.312+158.643+310.892+159.433+315.652+160.663C321.252+162.103+335.922+166.873+335.922+166.873L337.352+168.033L357.282+216.643L323.162+223.873L315.542+267.113L377.142+250.393C391.002+243.093+397.612+224.623+389.202+211.423Z" opacity="1" fill="#ffbe9d"/>
<path d="M335.932+166.783C335.667+166.745+335.405+166.681+335.152+166.593L332.942+165.963L324.832+163.553L319.242+161.863C317.242+161.243+315.092+160.603+312.812+160.023C310.437+159.382+308.026+158.885+305.592+158.533C304.256+158.51+302.932+158.27+301.672+157.823C301.336+157.671+301.036+157.45+300.792+157.173C300.659+157.014+300.557+156.831+300.492+156.633L300.422+156.103C300.316+155.395+300.36+154.673+300.552+153.983C300.797+153.275+301.306+152.687+301.972+152.343C302.579+152.029+303.215+151.774+303.872+151.583C305.171+151.211+306.521+151.046+307.872+151.093C310.472+151.093+312.922+151.493+315.262+151.393C316.399+151.367+317.532+151.256+318.652+151.063C319.742+150.863+320.782+150.583+321.802+150.323C323.686+149.734+325.66+149.48+327.632+149.573C329.251+149.728+330.837+150.133+332.332+150.773C333.457+151.242+334.553+151.78+335.612+152.383C336.482+152.873+337.142+153.283+337.612+153.553C337.843+153.687+338.064+153.837+338.272+154.003C338.021+153.907+337.78+153.787+337.552+153.643L335.552+152.563C334.485+151.995+333.386+151.488+332.262+151.043C330.787+150.443+329.229+150.072+327.642+149.943C325.714+149.873+323.788+150.141+321.952+150.733C320.952+151.003+319.892+151.303+318.782+151.513C317.636+151.721+316.476+151.842+315.312+151.873C312.932+151.983+310.452+151.633+307.912+151.603C306.629+151.565+305.347+151.723+304.112+152.073C302.892+152.473+301.502+152.903+301.112+154.143C300.95+154.763+300.912+155.409+301.002+156.043L301.072+156.503C301.108+156.627+301.173+156.74+301.262+156.833C301.463+157.053+301.704+157.233+301.972+157.363C303.181+157.774+304.446+157.997+305.722+158.023C308.178+158.388+310.609+158.902+313.002+159.563C315.292+160.153+317.432+160.813+319.432+161.453L325.012+163.203L333.072+165.773L335.252+166.493C335.487+166.569+335.715+166.666+335.932+166.783Z" opacity="1" fill="#eb996e"/>
<path d="M310.662+129.493C310.722+129.573+309.122+130.493+306.762+132.283C305.385+133.333+304.076+134.469+302.842+135.683C301.442+137.043+299.972+138.683+298.232+140.133C297.361+140.729+296.713+141.598+296.392+142.603C296.135+143.525+296.672+144.481+297.592+144.743C298.453+144.984+299.362+145.001+300.232+144.793C301.018+144.647+301.788+144.426+302.532+144.133C303.993+143.513+305.358+142.684+306.582+141.673C306.337+142.035+306.032+142.353+305.682+142.613C304.778+143.378+303.767+144.008+302.682+144.483C301.924+144.805+301.137+145.053+300.332+145.223C299.388+145.468+298.396+145.468+297.452+145.223C296.28+144.897+295.589+143.689+295.902+142.513C296.243+141.397+296.947+140.425+297.902+139.753C299.612+138.293+301.082+136.753+302.522+135.353C303.771+134.143+305.108+133.027+306.522+132.013C307.742+131.143+308.772+130.523+309.522+130.103C309.882+129.864+310.263+129.66+310.662+129.493Z" opacity="1" fill="#eb996e"/>
<path d="M323.172+133.613C322.816+134.095+322.428+134.552+322.012+134.983L318.722+138.603L313.792+143.933C312.807+145.014+311.635+145.909+310.332+146.573C309.618+146.933+308.832+147.128+308.032+147.143C307.173+147.158+306.344+146.826+305.732+146.223C305.421+145.877+305.231+145.438+305.192+144.973C305.158+144.542+305.202+144.109+305.322+143.693C305.55+142.909+305.909+142.169+306.382+141.503L306.382+141.503L306.382+141.503C308.152+139.633+309.792+137.873+311.262+136.253C312.732+134.633+314.202+133.363+315.382+132.253C315.889+131.723+316.464+131.262+317.092+130.883C317.6+130.659+318.147+130.536+318.702+130.523C319.592+130.463+320.112+130.523+320.062+130.643C319.615+130.59+319.162+130.61+318.722+130.703C318.199+130.748+317.688+130.884+317.212+131.103C316.623+131.503+316.083+131.969+315.602+132.493C314.462+133.633+313.052+134.953+311.602+136.553C310.152+138.153+308.522+139.973+306.762+141.863L306.762+141.863C306.324+142.472+305.986+143.147+305.762+143.863C305.659+144.22+305.618+144.593+305.642+144.963C305.683+145.315+305.829+145.647+306.062+145.913C306.578+146.407+307.268+146.676+307.982+146.663C308.701+146.65+309.409+146.475+310.052+146.153C311.302+145.521+312.43+144.671+313.382+143.643L318.382+138.393L321.792+134.893L322.742+133.953C323.009+133.713+323.152+133.6+323.172+133.613Z" opacity="1" fill="#eb996e"/>
<path d="M338.492+138.433C338.492+138.433+338.492+138.743+338.092+139.023C337.621+139.39+337.018+139.542+336.43+139.441C335.842+139.34+335.323+138.996+335.002+138.493C334.772+138.113+334.772+137.823+334.832+137.813C334.892+137.803+335.032+138.003+335.292+138.263C335.623+138.602+336.048+138.832+336.512+138.923C336.983+138.993+337.463+138.92+337.892+138.713C338.232+138.553+338.432+138.383+338.492+138.433Z" opacity="1" fill="#eb996e"/>
<path d="M339.692+143.023C339.582+143.113+338.832+142.363+338.172+141.233C337.691+140.598+337.403+139.838+337.342+139.043C337.472+138.993+337.972+139.893+338.622+140.973C339.078+141.6+339.439+142.291+339.692+143.023Z" opacity="1" fill="#eb996e"/>
<path d="M341.902+160.903C341.464+160.272+341.143+159.568+340.952+158.823C340.382+157.057+340.105+155.209+340.132+153.353C340.169+151.498+340.507+149.661+341.132+147.913C341.339+147.172+341.678+146.474+342.132+145.853C341.29+148.274+340.801+150.803+340.682+153.363C340.72+155.923+341.131+158.463+341.902+160.903Z" opacity="1" fill="#eb996e"/>
<path d="M368.822+230.193C368.722+230.193+368.622+229.133+368.102+227.503C367.791+226.553+367.396+225.633+366.922+224.753C365.742+222.606+364.103+220.745+362.122+219.303C361.314+218.716+360.454+218.203+359.552+217.773C358.012+217.043+356.962+216.773+356.982+216.713C357.236+216.703+357.49+216.737+357.732+216.813C358.416+216.959+359.085+217.167+359.732+217.433C360.681+217.831+361.586+218.327+362.432+218.913C364.515+220.352+366.212+222.283+367.372+224.533C367.844+225.447+368.216+226.41+368.482+227.403C368.666+228.058+368.789+228.727+368.852+229.403C368.884+229.667+368.874+229.933+368.822+230.193Z" opacity="1" fill="#eb996e"/>
<path d="M254.442+326.493C251.622+326.001+248.719+326.37+246.112+327.553C241.662+325.553+236.172+328.983+236.172+328.983C234.562+328.213+224.862+334.553+224.862+334.553L212.782+340.253L148.252+292.303L166.542+273.303L140.912+246.633L110.912+277.533C107.237+281.51+105.109+286.672+104.912+292.083C104.323+303.856+110.777+314.856+121.342+320.083L197.342+359.083C203.18+358.758+208.971+357.857+214.632+356.393C221.192+354.683+232.402+349.703+232.402+349.703C232.402+349.703+232.402+350.043+234.402+353.933C238.012+360.933+243.302+353.373+243.302+353.373C243.828+354.603+244.521+355.754+245.362+356.793C249.932+361.223+253.102+355.273+253.102+355.273C253.102+355.273+254.472+357.663+258.552+355.883C262.632+354.103+257.962+341.823+257.962+341.823C257.962+341.823+259.332+344.493+261.962+341.113C264.592+337.733+258.812+327.413+254.442+326.493Z" opacity="1" fill="#ffbe9d"/>
<path d="M245.312+328.183C245.562+328.009+245.85+327.895+246.152+327.853C246.963+327.676+247.805+327.704+248.602+327.933C249.776+328.267+250.873+328.828+251.832+329.583C252.409+330.013+252.948+330.491+253.442+331.013C253.94+331.628+254.363+332.299+254.702+333.013C255.887+335.398+256.873+337.877+257.652+340.423C257.952+341.423+258.152+342.193+258.282+342.753C258.375+343.037+258.419+343.335+258.412+343.633C258.342+343.633+257.982+342.443+257.302+340.533C256.42+338.046+255.395+335.612+254.232+333.243C253.917+332.58+253.52+331.959+253.052+331.393C252.586+330.891+252.081+330.426+251.542+330.003C250.648+329.273+249.632+328.704+248.542+328.323C247.493+328.013+246.384+327.965+245.312+328.183Z" opacity="1" fill="#eb996e"/>
<path d="M253.082+355.303C252.852+354.956+252.66+354.583+252.512+354.193L251.102+351.133C249.912+348.543+248.172+345.003+246.512+340.973C245.844+339.057+244.961+337.222+243.882+335.503C242.95+334.155+241.667+333.086+240.172+332.413C239.178+331.933+238.071+331.735+236.972+331.843C236.192+331.943+235.792+332.153+235.772+332.103C235.752+332.053+235.862+332.033+236.052+331.933C236.33+331.794+236.626+331.697+236.932+331.643C238.08+331.447+239.26+331.597+240.322+332.073C241.909+332.736+243.278+333.831+244.272+335.233C245.395+336.966+246.309+338.825+246.992+340.773C248.642+344.773+250.332+348.353+251.442+350.983C251.992+352.293+252.442+353.373+252.702+354.113C252.872+354.495+252.999+354.894+253.082+355.303Z" opacity="1" fill="#eb996e"/>
<path d="M223.462+339.873C223.775+339.65+224.11+339.459+224.462+339.303L227.342+337.913C227.962+337.623+228.612+337.303+229.342+336.983C230.164+336.656+231.051+336.526+231.932+336.603C232.913+336.682+233.854+337.028+234.652+337.603C235.457+338.262+236.135+339.061+236.652+339.963C237.202+340.863+237.652+341.793+238.052+342.653C238.452+343.513+238.922+344.343+239.362+345.123C240.232+346.673+241.052+348.063+241.652+349.283C242.146+350.236+242.573+351.222+242.932+352.233C243.092+352.593+243.2+352.973+243.252+353.363C243.172+353.363+242.632+351.813+241.332+349.453C240.682+348.273+239.842+346.913+238.942+345.363C238.492+344.583+238.042+343.753+237.602+342.883C237.162+342.013+236.742+341.103+236.212+340.233C235.728+339.39+235.102+338.635+234.362+338.003C233.649+337.458+232.803+337.113+231.912+337.003C231.103+336.916+230.284+337.019+229.522+337.303C228.802+337.593+228.112+337.913+227.522+338.163L224.572+339.493C224.219+339.664+223.846+339.792+223.462+339.873Z" opacity="1" fill="#eb996e"/>
<path d="M224.862+334.563C224.595+334.786+224.299+334.971+223.982+335.113C223.402+335.443+222.552+335.903+221.492+336.463C219.382+337.583+216.442+339.103+213.182+340.743C209.922+342.383+206.962+343.843+204.802+344.883L202.242+346.083C201.927+346.251+201.59+346.375+201.242+346.453C201.515+346.232+201.814+346.043+202.132+345.893C202.712+345.573+203.562+345.113+204.622+344.553C206.732+343.433+209.672+341.923+212.932+340.273C216.192+338.623+219.152+337.173+221.302+336.143C222.382+335.623+223.302+335.213+223.872+334.933C224.182+334.763+224.516+334.638+224.862+334.563Z" opacity="1" fill="#eb996e"/>
<path d="M149.112+292.423C146.591+292.043+144.033+291.959+141.492+292.173C138.97+292.553+136.5+293.225+134.132+294.173C134.734+293.694+135.409+293.316+136.132+293.053C137.821+292.328+139.606+291.849+141.432+291.633C143.263+291.418+145.115+291.465+146.932+291.773C147.689+291.871+148.425+292.09+149.112+292.423Z" opacity="1" fill="#eb996e"/>
<path d="M291.622+119.203C275.64+118.975+259.687+120.653+244.102+124.203C240.492+125.033+236.672+126.093+234.232+128.873C231.642+131.813+231.232+136.003+230.852+139.873C230.439+144.627+230.025+149.377+229.612+154.123C228.926+155.299+228.168+156.432+227.342+157.513C223.582+162.423+218.792+166.513+215.342+171.673C211.892+176.833+210.032+183.673+212.812+189.193C214.502+192.533+217.622+194.893+219.902+197.853C223.772+202.853+225.032+209.363+227.292+215.293C229.552+221.223+233.632+227.293+239.862+228.453C242.862+229.023+245.922+228.393+248.912+228.833C253.382+229.483+257.142+232.413+260.692+235.203C264.242+237.993+268.102+240.833+272.602+241.283C277.102+241.733+282.252+238.683+282.342+234.163C278.942+236.08+274.761+235.965+271.472+233.863C268.852+232.133+267.162+229.333+264.912+227.153C259.382+221.793+250.482+220.093+246.632+213.423C243.632+208.153+244.802+201.543+246.182+195.613C247.372+190.473+248.592+184.903+247.102+179.963C247.22+179.169+247.284+178.367+247.292+177.563C247.292+172.303+245.242+166.663+247.692+162.013C250.932+155.853+260.272+155.073+263.542+148.943C265.452+145.373+264.782+140.813+266.862+137.343C268.812+134.083+272.722+132.583+276.442+131.773C280.162+130.963+284.072+130.593+287.352+128.673C290.632+126.753+293.112+122.693+291.622+119.203Z" opacity="1" fill="#263238"/>
<path d="M303.742+226.493C303.705+226.584+303.654+226.668+303.592+226.743L303.102+227.433C302.43+228.298+301.658+229.08+300.802+229.763C299.427+230.83+297.882+231.659+296.232+232.213C294.05+232.971+291.729+233.24+289.432+233.003C286.626+232.731+283.962+231.639+281.772+229.863C279.392+228.033+277.272+225.603+274.582+223.673C273.234+222.669+271.662+222.006+270.002+221.743C268.25+221.6+266.491+221.92+264.902+222.673C263.211+223.472+261.437+224.082+259.612+224.493C257.654+224.775+255.657+224.425+253.912+223.493C252.205+222.595+250.594+221.526+249.102+220.303C247.61+219.182+246.199+217.956+244.882+216.633C243.58+215.351+242.558+213.812+241.882+212.113C241.279+210.447+241.161+208.644+241.542+206.913C241.908+205.309+242.413+203.74+243.052+202.223C243.632+200.753+244.132+199.303+244.572+197.883C245.376+195.264+245.994+192.59+246.422+189.883C247.041+185.939+247.258+181.942+247.072+177.953C247.012+176.543+246.922+175.443+246.842+174.703C246.842+174.353+246.842+174.083+246.772+173.863C246.757+173.767+246.757+173.669+246.772+173.573C246.807+173.663+246.827+173.757+246.832+173.853L246.952+174.693C247.062+175.433+247.192+176.523+247.282+177.943C247.546+181.949+247.385+185.972+246.802+189.943C246.394+192.686+245.792+195.396+245.002+198.053C244.562+199.473+244.062+200.943+243.492+202.433C242.867+203.908+242.368+205.434+242.002+206.993C241.64+208.639+241.758+210.353+242.342+211.933C242.999+213.565+243.986+215.043+245.242+216.273C246.544+217.575+247.937+218.781+249.412+219.883C250.876+221.082+252.458+222.131+254.132+223.013C255.775+223.916+257.665+224.267+259.522+224.013C261.308+223.605+263.045+223.005+264.702+222.223C266.373+221.449+268.217+221.125+270.052+221.283C271.79+221.551+273.438+222.237+274.852+223.283C277.592+225.283+279.692+227.723+282.032+229.533C284.148+231.28+286.733+232.362+289.462+232.643C293.439+233.079+297.435+232.009+300.662+229.643C301.811+228.72+302.845+227.662+303.742+226.493Z" opacity="1" fill="#263238"/>
<path d="M203.832+194.693C203.544+194.339+203.277+193.969+203.032+193.583C202.351+192.462+201.871+191.23+201.612+189.943C201.218+187.899+201.252+185.794+201.712+183.763C202.312+181.068+203.493+178.536+205.172+176.343C207.238+173.735+209.67+171.438+212.392+169.523C215.262+167.383+218.522+165.393+221.772+163.083C225.238+160.763+228.254+157.832+230.672+154.433C231.864+152.578+232.774+150.556+233.372+148.433C234.012+146.293+234.452+144.053+234.972+141.793C235.423+139.54+236.093+137.336+236.972+135.213C237.851+133.128+239.196+131.27+240.902+129.783C242.569+128.38+244.496+127.316+246.572+126.653C248.544+126.015+250.585+125.612+252.652+125.453C256.455+125.26+260.268+125.381+264.052+125.813C267.327+126.164+270.628+126.207+273.912+125.943C276.613+125.683+279.238+124.902+281.642+123.643C283.458+122.699+285.066+121.4+286.372+119.823C287.196+118.823+287.846+117.69+288.292+116.473C288.572+115.633+288.682+115.173+288.702+115.183C288.63+115.633+288.526+116.078+288.392+116.513C287.977+117.759+287.347+118.924+286.532+119.953C285.234+121.593+283.618+122.953+281.782+123.953C279.353+125.258+276.694+126.076+273.952+126.363C270.644+126.654+267.316+126.63+264.012+126.293C260.253+125.885+256.468+125.781+252.692+125.983C250.651+126.142+248.637+126.545+246.692+127.183C244.682+127.817+242.814+128.836+241.192+130.183C239.546+131.627+238.25+133.425+237.402+135.443C236.523+137.536+235.853+139.709+235.402+141.933C234.882+144.183+234.402+146.433+233.782+148.603C233.173+150.765+232.239+152.822+231.012+154.703C228.569+158.146+225.52+161.115+222.012+163.463C218.732+165.783+215.472+167.753+212.612+169.863C209.909+171.74+207.491+173.996+205.432+176.563C203.756+178.696+202.572+181.171+201.962+183.813C201.477+185.805+201.413+187.876+201.772+189.893C202.12+191.619+202.821+193.253+203.832+194.693Z" opacity="1" fill="#455a64"/>
<path d="M206.762+199.943C205.646+199.061+204.618+198.073+203.692+196.993C202.551+195.758+201.646+194.325+201.022+192.763C200.629+191.769+200.472+190.698+200.562+189.633C200.685+188.436+201.155+187.299+201.912+186.363C203.532+184.363+206.212+183.303+209.022+182.713C210.432+182.423+211.912+182.193+213.382+181.823C214.9+181.505+216.345+180.905+217.642+180.053C218.951+179.092+220.013+177.834+220.742+176.383C221.503+174.845+222.145+173.25+222.662+171.613C223.195+169.896+223.863+168.224+224.662+166.613C225.518+164.919+226.813+163.486+228.412+162.463C230.037+161.536+231.794+160.862+233.622+160.463C235.392+160.003+237.142+159.633+238.792+159.073C241.967+157.966+244.734+155.927+246.732+153.223C248.582+150.776+250.243+148.192+251.702+145.493C252.987+143.141+254.49+140.915+256.192+138.843C257.612+137.125+259.355+135.702+261.322+134.653C262.809+133.863+264.436+133.37+266.112+133.203C267.172+133.102+268.242+133.19+269.272+133.463C269.615+133.555+269.95+133.675+270.272+133.823C270.272+133.823+269.902+133.723+269.202+133.563C268.181+133.345+267.131+133.291+266.092+133.403C264.455+133.605+262.87+134.114+261.422+134.903C259.502+135.958+257.804+137.374+256.422+139.073C254.759+141.15+253.286+143.372+252.022+145.713C250.583+148.432+248.938+151.036+247.102+153.503C246.073+154.831+244.888+156.03+243.572+157.073C242.196+158.133+240.651+158.951+239.002+159.493C237.322+160.073+235.552+160.443+233.802+160.903C232.023+161.306+230.316+161.981+228.742+162.903C227.21+163.89+225.973+165.272+225.162+166.903C224.365+168.491+223.696+170.139+223.162+171.833C222.622+173.493+221.954+175.108+221.162+176.663C220.387+178.178+219.271+179.493+217.902+180.503C216.548+181.374+215.047+181.991+213.472+182.323C211.972+182.683+210.472+182.903+209.092+183.193C206.322+183.753+203.712+184.783+202.182+186.643C201.456+187.521+201.001+188.592+200.872+189.723C200.774+190.741+200.911+191.767+201.272+192.723C201.872+194.261+202.735+195.682+203.822+196.923C204.702+197.923+205.452+198.713+205.962+199.223L206.552+199.793C206.702+199.863+206.772+199.933+206.762+199.943Z" opacity="1" fill="#455a64"/>
<path d="M329.862+135.343C329.723+135.622+329.548+135.881+329.342+136.113C328.982+136.593+328.452+137.273+327.762+138.113C326.402+139.753+324.442+141.953+322.142+144.263C321.002+145.383+319.932+146.643+318.462+147.103C317.778+147.339+317.036+147.339+316.352+147.103C315.766+146.86+315.284+146.417+314.992+145.853C314.598+145.069+314.468+144.178+314.622+143.313C314.639+143.001+314.717+142.695+314.852+142.413C314.885+142.719+314.885+143.028+314.852+143.333C314.779+144.145+314.95+144.959+315.342+145.673C315.611+146.134+316.032+146.488+316.532+146.673C317.118+146.878+317.756+146.878+318.342+146.673C319.622+146.263+320.652+145.063+321.802+143.923C324.092+141.633+326.082+139.473+327.522+137.923C328.243+137.012+329.025+136.15+329.862+135.343Z" opacity="1" fill="#eb996e"/>
<path d="M337.502+135.343C337.338+135.632+337.132+135.895+336.892+136.123C336.482+136.603+335.892+137.283+335.112+138.123L332.422+141.033L330.822+142.733C330.269+143.373+329.66+143.962+329.002+144.493C328.301+145.052+327.454+145.399+326.562+145.493C325.682+145.585+324.818+145.205+324.292+144.493C324.051+144.155+323.922+143.749+323.922+143.333C323.945+142.954+324.062+142.586+324.262+142.263C324.632+141.663+325.012+141.203+325.342+140.743C326.002+139.833+326.552+139.103+326.942+138.603C327.122+138.327+327.341+138.078+327.592+137.863C327.467+138.168+327.306+138.457+327.112+138.723C326.772+139.253+326.272+140.013+325.642+140.953C325.332+141.423+324.952+141.953+324.642+142.473C324.268+142.993+324.268+143.694+324.642+144.213C325.079+144.779+325.784+145.069+326.492+144.973C327.28+144.889+328.029+144.584+328.652+144.093C329.306+143.598+329.912+143.043+330.462+142.433L332.092+140.753L334.862+137.913C335.652+137.113+336.302+136.473+336.762+136.033C336.976+135.77+337.225+135.538+337.502+135.343Z" opacity="1" fill="#eb996e"/>
</g>
<g id="freepik--Plants--inject-181" vectornator:layerName="freepik--Plants--inject-181">
<path d="M618.91+434C620.653+430.206+624.152+427.513+628.266+426.8C632.38+426.086+636.581+427.444+639.5+430.43C637.392+433.831+634.118+436.348+630.29+437.51C626.138+438.973+621.517+437.547+618.91+434" opacity="1" fill="#fca311"/>
<path d="M611.81+435.64C612.728+435.229+613.691+434.927+614.68+434.74C616.49+434.3+619.01+433.81+621.8+433.35C624.59+432.89+627.13+432.54+628.98+432.35C629.971+432.185+630.975+432.108+631.98+432.12C631.019+432.402+630.035+432.603+629.04+432.72L621.89+433.89C619.11+434.35+616.59+434.79+614.77+435.13C613.794+435.356+612.806+435.526+611.81+435.64Z" opacity="1" fill="#263238"/>
<path d="M261.48+370.69C265.812+374.257+268.056+379.766+267.452+385.345C266.847+390.923+263.475+395.823+258.48+398.38C254.81+388.97+253.4+378.84+261.48+370.69" opacity="1" fill="#fca311"/>
<path d="M275.39+377.91C275.79+385.156+279.81+391.714+286.085+395.358C292.36+399.003+300.049+399.244+306.54+396C299.54+385+290.07+375.73+275.39+377.89" opacity="1" fill="#fca311"/>
<path d="M243.52+343.13C243.696+343.277+243.854+343.445+243.99+343.63L245.24+345.12C246.3+346.43+247.85+348.32+249.81+350.61C253.71+355.21+259.22+361.47+265.71+368C268.96+371.26+272.15+374.27+275.11+376.93C278.07+379.59+280.87+381.86+283.27+383.68C285.155+385.125+287.122+386.46+289.16+387.68C290.61+388.54+291.47+388.9+291.45+388.95C291.227+388.899+291.012+388.818+290.81+388.71C290.209+388.464+289.625+388.18+289.06+387.86C286.975+386.699+284.971+385.4+283.06+383.97C280.62+382.17+277.82+379.9+274.81+377.28C271.8+374.66+268.61+371.62+265.35+368.36C258.85+361.82+253.35+355.51+249.54+350.84C247.61+348.51+246.11+346.58+245.09+345.24L243.91+343.68C243.763+343.509+243.633+343.325+243.52+343.13Z" opacity="1" fill="#263238"/>
<path d="M260.71+384.91C260.62+384.91+260.95+383.51+261.24+381.24C261.982+375.303+261.353+369.275+259.4+363.62C258.65+361.46+258.04+360.17+258.12+360.13C258.328+360.392+258.499+360.682+258.63+360.99C259.047+361.803+259.421+362.637+259.75+363.49C260.828+366.313+261.534+369.265+261.85+372.27C262.161+375.268+262.077+378.294+261.6+381.27C261.452+382.191+261.251+383.102+261+384C260.939+384.314+260.842+384.619+260.71+384.91Z" opacity="1" fill="#263238"/>
<path d="M702+182.54C699.486+179.208+698.774+174.852+700.097+170.893C701.42+166.934+704.608+163.881+708.62+162.73C710.616+166.192+711.281+170.263+710.49+174.18C709.81+178.532+706.362+181.928+702+182.54" opacity="1" fill="#fca311"/>
<path d="M700.1+189.57C700.17+188.567+700.361+187.577+700.67+186.62C701.14+184.82+701.9+182.37+702.82+179.69C703.74+177.01+704.64+174.61+705.32+172.88C705.64+171.927+706.049+171.007+706.54+170.13C706.33+171.112+706.039+172.076+705.67+173.01C705.01+174.92+704.2+177.26+703.31+179.86C702.42+182.46+701.58+184.96+701.02+186.72C700.762+187.685+700.455+188.636+700.1+189.57Z" opacity="1" fill="#263238"/>
<path d="M658+256.94C655.9+249.144+657.775+240.814+663.013+234.671C668.252+228.527+676.18+225.359+684.21+226.2C685.6+233.76+683.21+241.52+679.26+248.09C674.55+255.84+665.19+259.09+658+256.94" opacity="1" fill="#fca311"/>
<path d="M628.41+286.54C628.535+286.346+628.679+286.165+628.84+286L630.13+284.53C631.28+283.27+632.96+281.47+635.05+279.27C639.25+274.87+645.11+268.86+651.63+262.27C658.15+255.68+664.08+249.73+668.4+245.46L673.54+240.41L674.96+239.06C675.28+238.76+675.46+238.6+675.48+238.62C675.347+238.807+675.196+238.981+675.03+239.14L673.68+240.56L668.68+245.71L652+262.63L635.32+279.53L630.32+284.67L628.96+286.07C628.795+286.247+628.611+286.405+628.41+286.54Z" opacity="1" fill="#263238"/>
<path d="M658+256.94C655.9+249.144+657.775+240.814+663.013+234.671C668.252+228.527+676.18+225.359+684.21+226.2C685.6+233.76+683.21+241.52+679.26+248.09C674.55+255.84+665.19+259.09+658+256.94" opacity="0.09" fill="#000000"/>
<path d="M644.29+259.91C639.867+257.657+636.846+253.362+636.219+248.438C635.593+243.514+637.442+238.599+641.16+235.31C645.16+237.81+647.72+242.08+649.05+246.6C650.63+251.94+648.25+257.6+644.29+259.91" opacity="1" fill="#fca311"/>
<path d="M644.29+259.91C639.867+257.657+636.846+253.362+636.219+248.438C635.593+243.514+637.442+238.599+641.16+235.31C645.16+237.81+647.72+242.08+649.05+246.6C650.63+251.94+648.25+257.6+644.29+259.91" opacity="0.09" fill="#000000"/>
<path d="M645.85+268.43C645.712+268.137+645.611+267.828+645.55+267.51C645.38+266.92+645.19+266.05+644.98+264.96C644.56+262.8+644.12+259.78+643.72+256.45C643.32+253.12+643.04+250.08+642.87+247.88C642.726+246.699+642.679+245.508+642.73+244.32C642.98+245.484+643.15+246.663+643.24+247.85C643.51+250.17+643.86+253.12+644.24+256.39C644.62+259.66+645.02+262.73+645.34+264.9C645.66+267.07+645.93+268.41+645.85+268.43Z" opacity="1" fill="#263238"/>
<path d="M457+375.81C460.105+368.444+466.718+363.142+474.584+361.714C482.449+360.286+490.504+362.925+496+368.73C484.66+377.52+471.43+383.52+457.08+375.81" opacity="1" fill="#fca311"/>
<path d="M457+375.81C460.105+368.444+466.718+363.142+474.584+361.714C482.449+360.286+490.504+362.925+496+368.73C484.66+377.52+471.43+383.52+457.08+375.81" opacity="0.09" fill="#000000"/>
<path d="M450.63+379.33C450.9+379.06+451.202+378.825+451.53+378.63C452.13+378.2+453.02+377.63+454.16+376.97C460.103+373.534+466.69+371.359+473.51+370.58C474.81+370.44+475.87+370.37+476.6+370.36C476.978+370.308+477.362+370.308+477.74+370.36C477.74+370.44+476.13+370.54+473.55+370.92C470.193+371.411+466.885+372.187+463.66+373.24C460.444+374.303+457.326+375.642+454.34+377.24C452+378.52+450.68+379.4+450.63+379.33Z" opacity="1" fill="#263238"/>
<path d="M193.43+245.51C199.008+242.908+205.522+243.288+210.759+246.521C215.997+249.755+219.256+255.407+219.43+261.56C208.38+260.74+197.69+257.35+193.43+245.51" opacity="1" fill="#fca311"/>
<path d="M193.43+245.51C199.008+242.908+205.522+243.288+210.759+246.521C215.997+249.755+219.256+255.407+219.43+261.56C208.38+260.74+197.69+257.35+193.43+245.51" opacity="0.09" fill="#000000"/>
<path d="M187.94+244.22C188.231+244.172+188.529+244.172+188.82+244.22C189.616+244.306+190.407+244.432+191.19+244.6C193.78+245.141+196.307+245.948+198.73+247.01C201.151+248.082+203.457+249.399+205.61+250.94C206.43+251.54+207.07+252.05+207.49+252.43C207.726+252.608+207.938+252.817+208.12+253.05C208.06+253.12+207.12+252.35+205.4+251.25C201.029+248.366+196.195+246.252+191.11+245C189.16+244.51+187.93+244.3+187.94+244.22Z" opacity="1" fill="#263238"/>
<path d="M551.76+363.56C551.098+358.093+553.233+352.66+557.44+349.106C561.647+345.552+567.36+344.354+572.64+345.92C568.87+355.09+563.01+363.24+551.76+363.56" opacity="1" fill="#fca311"/>
<path d="M549.13+367.87C549.435+366.935+549.855+366.042+550.38+365.21C552.74+361.085+555.947+357.506+559.79+354.71C560.561+354.099+561.404+353.585+562.3+353.18C561.566+353.827+560.799+354.435+560+355C556.329+357.912+553.177+361.425+550.68+365.39C550.211+366.246+549.694+367.074+549.13+367.87Z" opacity="1" fill="#263238"/>
<path d="M630.45+311.61C628.773+306.365+629.848+300.628+633.312+296.347C636.775+292.066+642.16+289.815+647.64+290.36C645.64+300.08+641.44+309.18+630.45+311.61" opacity="1" fill="#fca311"/>
<path d="M630.45+311.61C628.773+306.365+629.848+300.628+633.312+296.347C636.775+292.066+642.16+289.815+647.64+290.36C645.64+300.08+641.44+309.18+630.45+311.61" opacity="0.09" fill="#000000"/>
<path d="M628.68+316.34C628.801+315.366+629.047+314.412+629.41+313.5C630.175+311.255+631.181+309.099+632.41+307.07C633.627+305.037+635.062+303.142+636.69+301.42C637.328+300.667+638.057+299.995+638.86+299.42C638.266+300.193+637.632+300.934+636.96+301.64C635.44+303.42+634.066+305.32+632.85+307.32C631.657+309.329+630.624+311.429+629.76+313.6C629.453+314.533+629.092+315.448+628.68+316.34Z" opacity="1" fill="#263238"/>
<path d="M37.28+240.1C38.4743+234.724+42.2952+230.31+47.445+228.357C52.5949+226.405+58.3816+227.177+62.84+230.41C56.24+237.8+48+243.54+37.28+240.1" opacity="1" fill="#fca311"/>
<path d="M33.37+243.29C33.9715+242.514+34.663+241.813+35.43+241.2C37.2231+239.665+39.174+238.324+41.25+237.2C43.3278+236.055+45.524+235.14+47.8+234.47C48.7263+234.144+49.691+233.939+50.67+233.86C49.7688+234.243+48.8475+234.577+47.91+234.86C43.4786+236.381+39.3392+238.647+35.67+241.56C34.938+242.181+34.17+242.759+33.37+243.29Z" opacity="1" fill="#263238"/>
</g>
</svg>
